<?xml version="1.0" encoding="utf-8"?>
<!-- Generator: Adobe Illustrator 19.0.1, SVG Export Plug-In . SVG Version: 6.00 Build 0)  -->
<svg version="1.1" id="Layer_1" xmlns="http://www.w3.org/2000/svg" xmlns:xlink="http://www.w3.org/1999/xlink" x="0px" y="0px"
	 viewBox="-205 194 100 125" style="enable-background:new -205 194 100 125;" xml:space="preserve">
<style type="text/css">
	.st0{fill:#FFD500;}
</style>
<path class="st0" d="M-130.5,236.4c-0.8-1-1.9-1.5-2.9-2.1c-1-0.5-1.9-1-2.7-1.9c-3.5-3.9-7.5-5.9-12.5-6.5
	c-0.2-3.2-2.9-5.8-6.1-5.8c-3.3,0-5.9,2.5-6.1,5.7c-5.3,0.5-9.5,2.6-13.1,6.6c-0.8,0.9-1.7,1.4-2.7,1.9c-1,0.5-2,1.1-2.9,2.1
	c-2,2.3-2.5,5.3-1.4,7.7c0.7,1.5,1.9,2.5,3.3,2.9l7.8,19.5c0.3,0.8,1.1,1.3,2,1.3h26.2c0.9,0,1.6-0.5,2-1.3l7.9-19.8
	c1.1-0.5,2-1.4,2.6-2.6C-128,241.7-128.6,238.7-130.5,236.4z M-154.7,224.3c1.1,0,1.9,0.9,1.9,1.9s-0.9,1.9-1.9,1.9
	c-1.1,0-1.9-0.9-1.9-1.9S-155.8,224.3-154.7,224.3z M-176.3,239.2c0.3-0.4,1-0.7,1.7-1.1c1.1-0.6,2.5-1.4,3.8-2.8
	c3.1-3.4,6.5-5.1,11.2-5.3c1.1,1.5,2.9,2.5,4.9,2.5c2,0,3.8-0.9,4.9-2.4c4.4,0.3,7.7,1.9,10.6,5.2c1.3,1.4,2.7,2.2,3.8,2.8
	c0.7,0.4,1.4,0.7,1.7,1.1c1,1.2,1.1,2.4,0.8,3.2c-0.2,0.4-0.5,0.7-1,0.7h-42c-0.5,0-0.8-0.2-1-0.7
	C-177.4,241.6-177.3,240.4-176.3,239.2z M-149.6,263.7l2.7-16.4h4.5l-5.5,16.4H-149.6z M-161.5,263.7l-5.5-16.4h4.5l2.7,16.4H-161.5
	z M-160.3,247.2h4.6v16.4h-1.8L-160.3,247.2z M-153.6,247.2h4.6l-2.7,16.4h-1.8V247.2z M-172.9,247.2h3.8l5.5,16.4h-2.7
	L-172.9,247.2z M-143,263.7h-2.6l5.5-16.4h3.7L-143,263.7z"/>
</svg>
