<?xml version="1.0" encoding="utf-8"?>
<!-- Generator: Adobe Illustrator 19.0.1, SVG Export Plug-In . SVG Version: 6.00 Build 0)  -->
<svg version="1.1" id="Layer_1" xmlns="http://www.w3.org/2000/svg" xmlns:xlink="http://www.w3.org/1999/xlink" x="0px" y="0px"
	 viewBox="-669 683.1 54 54" style="enable-background:new -669 683.1 54 54;" xml:space="preserve">
<g>
	<polygon points="-657.3,697.7 -645.6,697.7 -641.8,712.2 -637.9,697.7 -626.3,697.7 -626.3,701.4 -627.9,701.4 -628.2,701.6 
		-628.5,701.9 -628.6,702.2 -628.6,717.7 -628.5,718 -628.3,718.3 -627.9,718.5 -627.6,718.5 -626.3,718.5 -626.3,722.1 
		-637.4,722.1 -637.4,718.6 -635.1,718.6 -635.1,702.3 -640.6,722.1 -644.9,722.1 -650.3,702.2 -650.4,718.6 -648,718.7 
		-648.1,722.1 -657.3,722.1 -657.3,718.6 -655.8,718.6 -655.5,718.5 -655.1,718.2 -655,717.8 -655,702.2 -655.1,701.8 -655.4,701.5 
		-655.9,701.3 -657.3,701.3 	"/>
	<path id="linkedin" d="M-642,737.1c-14.9,0-27-12.1-27-27s12.1-27,27-27s27,12.1,27,27S-627.1,737.1-642,737.1z M-642,685.1
		c-13.8,0-25,11.2-25,25s11.2,25,25,25s25-11.2,25-25S-628.2,685.1-642,685.1z"/>
</g>
</svg>
