<?xml version="1.0" encoding="utf-8"?>
<!-- Generator: Adobe Illustrator 19.0.1, SVG Export Plug-In . SVG Version: 6.00 Build 0)  -->
<svg version="1.1" id="Layer_1" xmlns="http://www.w3.org/2000/svg" xmlns:xlink="http://www.w3.org/1999/xlink" x="0px" y="0px"
	 viewBox="-441 453 54 53.9" style="enable-background:new -441 453 54 53.9;" xml:space="preserve">
<style type="text/css">
	.st0{fill:#FFFFFF;}
</style>
<g>
	<polygon class="st0" points="-429.3,467.6 -417.6,467.6 -413.8,482.1 -409.9,467.6 -398.3,467.6 -398.3,471.3 -399.9,471.3 
		-400.2,471.5 -400.5,471.8 -400.6,472.1 -400.6,487.6 -400.5,487.9 -400.3,488.2 -399.9,488.4 -399.6,488.4 -398.3,488.4 
		-398.3,492 -409.4,492 -409.4,488.5 -407.1,488.5 -407.1,472.2 -412.6,492 -416.9,492 -422.3,472.1 -422.4,488.5 -420,488.6 
		-420.1,492 -429.3,492 -429.3,488.5 -427.8,488.5 -427.5,488.4 -427.1,488.1 -427,487.7 -427,472.1 -427.1,471.7 -427.4,471.4 
		-427.9,471.2 -429.3,471.2 	"/>
	<path id="linkedin" class="st0" d="M-414,507c-14.9,0-27-12.1-27-27s12.1-27,27-27s27,12.1,27,27S-399.1,507-414,507z M-414,455
		c-13.8,0-25,11.2-25,25s11.2,25,25,25s25-11.2,25-25S-400.2,455-414,455z"/>
</g>
</svg>
